<svg width="16" height="16" viewBox="0 0 16 16" fill="none" xmlns="http://www.w3.org/2000/svg">
<circle cx="8" cy="8" r="7" fill="white" stroke="#499F68" stroke-width="2"/>
<g clip-path="url(#clip0)">
<path d="M7.57394 11.7989C7.16589 12.207 6.50381 12.207 6.09596 11.7989L3.80603 9.50896C3.39799 9.10111 3.39799 8.43901 3.80603 8.03115C4.21388 7.6231 4.87597 7.6231 5.28401 8.03115L6.64836 9.39533C6.75135 9.49813 6.91855 9.49813 7.02174 9.39533L10.716 5.701C11.1238 5.29295 11.7859 5.29295 12.194 5.701C12.3899 5.89695 12.5 6.16281 12.5 6.4399C12.5 6.71699 12.3899 6.98286 12.194 7.17881L7.57394 11.7989Z" fill="#499F68"/>
</g>
<defs>
<clipPath id="clip0">
<rect x="3.5" y="4.24997" width="9" height="9" fill="white"/>
</clipPath>
</defs>
</svg>
